<svg width="16" height="12" viewBox="0 0 16 12" fill="none" xmlns="http://www.w3.org/2000/svg">
<path fill-rule="evenodd" clip-rule="evenodd" d="M13.3504 0.75L2.49204 10.8263L3.63502 11.8869L14.4933 1.81066L13.3504 0.75ZM10.0934 1.87114L8.06869 3.75C6.7296 3.75 5.64406 4.75736 5.64406 6L2.83683 8.60504C1.40101 7.37512 0.7948 6 0.7948 6C0.7948 6 2.77859 1.5 8.06869 1.5C8.76903 1.5 9.44878 1.64021 10.0934 1.87114ZM13.8942 4.38627C14.8014 5.26342 15.3426 6 15.3426 6C15.3426 6 12.0363 10.5 8.06869 10.5C7.81761 10.5 7.57398 10.4899 7.33766 10.4706L13.8942 4.38627Z" fill="#868686"/>
</svg>
